<svg width="66" height="66" viewBox="0 0 66 66" fill="none" xmlns="http://www.w3.org/2000/svg">
<g filter="url(#filter0_d_1_28)">
<circle cx="33" cy="25" r="24" fill="url(#paint0_linear_1_28)"/>
</g>
<path d="M20 38L21.8282 31.324C20.7005 29.3701 20.1073 27.1536 20.1081 24.8829C20.111 17.7793 25.8918 12 32.9953 12C36.4424 12.0015 39.6779 13.3432 42.1111 15.7784C44.544 18.2136 45.8835 21.4506 45.8822 24.8933C45.8791 31.9967 40.0975 37.7769 32.9953 37.7769C32.9949 37.7769 32.9955 37.7769 32.9953 37.7769H32.9897C30.8329 37.776 28.7139 37.2351 26.8316 36.2085L20 38ZM27.148 33.8763L27.5394 34.1081C29.1836 35.0839 31.0687 35.6 32.9911 35.601H32.9953C38.8987 35.601 43.7037 30.7969 43.7062 24.8925C43.7072 22.0311 42.5942 19.3404 40.5719 17.3165C38.5494 15.2925 35.8604 14.1773 32.9992 14.176C27.091 14.176 22.2863 18.9795 22.284 24.8838C22.2831 26.9071 22.8492 28.8774 23.9215 30.5825L24.1764 30.9877L23.0941 34.9391L27.148 33.8763Z" fill="white"/>
<path fill-rule="evenodd" clip-rule="evenodd" d="M29.7748 19.4971C29.5336 18.9609 29.2796 18.9502 29.0501 18.9408C28.8624 18.9328 28.6475 18.9332 28.4331 18.9332C28.2185 18.9332 27.8696 19.014 27.5745 19.3361C27.2793 19.6583 26.4473 20.4373 26.4473 22.0216C26.4473 23.6062 27.6013 25.1371 27.7622 25.3521C27.9232 25.567 29.9899 28.9221 33.2627 30.2128C35.9828 31.2856 36.5362 31.0722 37.1266 31.0186C37.7171 30.9649 39.0317 30.2395 39.3 29.4877C39.5685 28.7358 39.5685 28.0915 39.4879 27.9566C39.4073 27.8226 39.1926 27.742 38.8707 27.581C38.5487 27.42 36.9657 26.6408 36.6704 26.5335C36.3752 26.4259 36.1605 26.3725 35.9459 26.6949C35.7311 27.0168 35.1145 27.742 34.9266 27.9566C34.7387 28.1719 34.5507 28.1988 34.2288 28.0376C33.9068 27.8762 32.8697 27.5364 31.6394 26.4394C30.6823 25.586 30.0359 24.5319 29.8479 24.2095C29.6602 23.8875 29.8448 23.7284 29.9894 23.5525C30.2499 23.2357 30.6868 22.6662 30.7941 22.4515C30.9015 22.2365 30.8478 22.0486 30.7674 21.8874C30.6868 21.7264 30.0609 20.134 29.7748 19.4971Z" fill="white"/>
<defs>
<filter id="filter0_d_1_28" x="0" y="0" width="66" height="66" filterUnits="userSpaceOnUse" color-interpolation-filters="sRGB">
<feFlood flood-opacity="0" result="BackgroundImageFix"/>
<feColorMatrix in="SourceAlpha" type="matrix" values="0 0 0 0 0 0 0 0 0 0 0 0 0 0 0 0 0 0 127 0" result="hardAlpha"/>
<feOffset dy="8"/>
<feGaussianBlur stdDeviation="4.5"/>
<feColorMatrix type="matrix" values="0 0 0 0 0.220024 0 0 0 0 0.220024 0 0 0 0 0.220024 0 0 0 0.179606 0"/>
<feBlend mode="normal" in2="BackgroundImageFix" result="effect1_dropShadow_1_28"/>
<feBlend mode="normal" in="SourceGraphic" in2="effect1_dropShadow_1_28" result="shape"/>
</filter>
<linearGradient id="paint0_linear_1_28" x1="33" y1="1" x2="26" y2="45" gradientUnits="userSpaceOnUse">
<stop stop-color="#5DFA79"/>
<stop offset="1" stop-color="#26D044"/>
</linearGradient>
</defs>
</svg>
